<svg width="15" height="17" viewBox="0 0 15 17" fill="none" xmlns="http://www.w3.org/2000/svg">
<path d="M0.75 3.75L3 0.75H12L14.25 3.75M0.75 3.75V14.25C0.75 14.6478 0.908035 15.0294 1.18934 15.3107C1.47064 15.592 1.85218 15.75 2.25 15.75H12.75C13.1478 15.75 13.5294 15.592 13.8107 15.3107C14.092 15.0294 14.25 14.6478 14.25 14.25V3.75M0.75 3.75H14.25M10.5 6.75C10.5 7.54565 10.1839 8.30871 9.62132 8.87132C9.05871 9.43393 8.29565 9.75 7.5 9.75C6.70435 9.75 5.94129 9.43393 5.37868 8.87132C4.81607 8.30871 4.5 7.54565 4.5 6.75" stroke="#242424" stroke-width="1.5" stroke-linecap="round" stroke-linejoin="round"/>
</svg>
